<svg width="24" height="24" viewBox="0 0 24 24" fill="none" xmlns="http://www.w3.org/2000/svg">
<path d="M15.5999 5.3999C15.5999 4.60425 15.2839 3.84119 14.7213 3.27858C14.1587 2.71597 13.3956 2.3999 12.5999 2.3999H5.39995C4.6043 2.3999 3.84124 2.71597 3.27863 3.27858C2.71602 3.84119 2.39995 4.60425 2.39995 5.3999V9.9083C3.4838 9.01332 4.82508 8.48773 6.22843 8.4081C7.63178 8.32847 9.02391 8.69895 10.202 9.46559C11.3802 10.2322 12.2828 11.355 12.7784 12.6703C13.2741 13.9856 13.3368 15.4248 12.9576 16.7783C13.686 16.6908 14.3572 16.3395 14.8441 15.7907C15.331 15.2418 15.5999 14.5336 15.5999 13.7999V5.3999ZM16.7999 7.1159V12.0983L20.1167 14.9183C20.2477 15.0297 20.4078 15.1013 20.5781 15.1245C20.7485 15.1478 20.9219 15.1218 21.0779 15.0496C21.234 14.9774 21.366 14.862 21.4585 14.7171C21.5511 14.5722 21.6001 14.4038 21.5999 14.2319V5.0315C21.5997 4.86059 21.5507 4.6933 21.4588 4.54919C21.3669 4.40508 21.2359 4.29011 21.0811 4.21773C20.9263 4.14535 20.754 4.11855 20.5845 4.14047C20.415 4.16239 20.2553 4.23212 20.1239 4.3415L16.7999 7.1159ZM11.9999 14.9999C11.9999 16.4321 11.431 17.8056 10.4183 18.8183C9.40563 19.831 8.03212 20.3999 6.59995 20.3999C5.16778 20.3999 3.79427 19.831 2.78157 18.8183C1.76888 17.8056 1.19995 16.4321 1.19995 14.9999C1.19995 13.5677 1.76888 12.1942 2.78157 11.1815C3.79427 10.1688 5.16778 9.5999 6.59995 9.5999C8.03212 9.5999 9.40563 10.1688 10.4183 11.1815C11.431 12.1942 11.9999 13.5677 11.9999 14.9999ZM7.19995 12.5999C7.19995 12.4408 7.13674 12.2882 7.02421 12.1756C6.91169 12.0631 6.75908 11.9999 6.59995 11.9999C6.44082 11.9999 6.28821 12.0631 6.17569 12.1756C6.06316 12.2882 5.99995 12.4408 5.99995 12.5999V14.3999H4.19995C4.04082 14.3999 3.88821 14.4631 3.77569 14.5756C3.66317 14.6882 3.59995 14.8408 3.59995 14.9999C3.59995 15.159 3.66317 15.3116 3.77569 15.4242C3.88821 15.5367 4.04082 15.5999 4.19995 15.5999H5.99995V17.3999C5.99995 17.559 6.06316 17.7116 6.17569 17.8242C6.28821 17.9367 6.44082 17.9999 6.59995 17.9999C6.75908 17.9999 6.91169 17.9367 7.02421 17.8242C7.13674 17.7116 7.19995 17.559 7.19995 17.3999V15.5999H8.99995C9.15908 15.5999 9.31169 15.5367 9.42421 15.4242C9.53674 15.3116 9.59995 15.159 9.59995 14.9999C9.59995 14.8408 9.53674 14.6882 9.42421 14.5756C9.31169 14.4631 9.15908 14.3999 8.99995 14.3999H7.19995V12.5999Z" fill="#898989"/>
</svg>
