<svg width="40" height="24" viewBox="0 0 40 24" fill="none" xmlns="http://www.w3.org/2000/svg">
<rect width="40" height="24" rx="5" fill="#C4C4C4"/>
<path fill-rule="evenodd" clip-rule="evenodd" d="M12.345 2.24507C12.4943 2.1154 12.6787 2.03289 12.8748 2.00797C13.071 1.98306 13.2701 2.01684 13.447 2.10507L31.447 11.1051C31.6135 11.188 31.7534 11.3157 31.8513 11.4738C31.9491 11.6319 32.001 11.8141 32.001 12.0001C32.001 12.186 31.9491 12.3682 31.8513 12.5263C31.7534 12.6844 31.6135 12.8121 31.447 12.8951L13.447 21.8951C13.2701 21.9836 13.0709 22.0177 12.8746 21.9929C12.6783 21.9682 12.4937 21.8858 12.3443 21.7562C12.1948 21.6265 12.0872 21.4554 12.035 21.2646C11.9828 21.0738 11.9884 20.8717 12.051 20.6841L14.613 13.0001H20C20.2653 13.0001 20.5196 12.8947 20.7072 12.7072C20.8947 12.5196 21 12.2653 21 12.0001C21 11.7348 20.8947 11.4805 20.7072 11.293C20.5196 11.1054 20.2653 11.0001 20 11.0001H14.613L12.05 3.31607C11.9877 3.12848 11.9824 2.92662 12.0347 2.736C12.087 2.54538 12.1947 2.37454 12.344 2.24507H12.345Z" fill="white"/>
</svg>
