<svg width="28" height="25" viewBox="0 0 28 25" fill="none" xmlns="http://www.w3.org/2000/svg">
<path d="M11.9949 18.8763L17.0202 15.9975C17.8662 15.5177 17.8662 14.2929 17.0202 13.8005L11.9949 10.9217C11.149 10.4419 10.101 11.0606 10.101 12.0202V17.7652C10.101 18.7374 11.149 19.3561 11.9949 18.8763ZM25.2525 4.79798H15.6692L19.3813 1.08586C19.6338 0.833333 19.6338 0.441919 19.3813 0.189394C19.1288 -0.0631313 18.7374 -0.0631313 18.4848 0.189394L13.8889 4.78535L9.29293 0.189394C9.0404 -0.0631313 8.64899 -0.0631313 8.39647 0.189394C8.14394 0.441919 8.14394 0.833333 8.39647 1.08586L12.1086 4.79798H2.52525C1.85551 4.79798 1.21321 5.06403 0.739629 5.53761C0.266053 6.01119 0 6.65349 0 7.32323V22.4747C0 23.8636 1.13636 25 2.52525 25H25.2525C26.6414 25 27.7778 23.8636 27.7778 22.4747V7.32323C27.7778 6.65349 27.5117 6.01119 27.0381 5.53761C26.5646 5.06403 25.9223 4.79798 25.2525 4.79798ZM23.9899 22.4747H3.78788C3.09343 22.4747 2.52525 21.9066 2.52525 21.2121V8.58586C2.52525 7.89141 3.09343 7.32323 3.78788 7.32323H23.9899C24.6843 7.32323 25.2525 7.89141 25.2525 8.58586V21.2121C25.2525 21.9066 24.6843 22.4747 23.9899 22.4747Z" fill="#C4C4C4"/>
</svg>
