<svg width="60" height="60" viewBox="0 0 60 60" fill="none" xmlns="http://www.w3.org/2000/svg">
<path d="M59.9625 44.1497C59.9357 44.0752 59.8944 44.0067 59.841 43.9481C59.7876 43.8896 59.7231 43.8422 59.6513 43.8088C59.5795 43.7753 59.5017 43.7564 59.4225 43.7531C59.3434 43.7499 59.2643 43.7623 59.19 43.7898L54.6 45.4622V5.09968C54.6 2.27986 52.32 0 49.5 0H10.5C7.68 0 5.4 2.27986 5.4 5.09968V45.4622L0.8025 43.7898C0.735 43.7673 0.6675 43.7523 0.6 43.7523C0.27 43.7523 0 44.0223 0 44.3522V48.822C0 49.0694 0.1575 49.2944 0.3975 49.3844L29.175 59.8538C29.7075 60.0487 30.285 60.0487 30.8175 59.8538L59.6025 49.3919C59.8425 49.3019 60 49.0769 60 48.8294V44.3597C60 44.2847 59.985 44.2172 59.9625 44.1497ZM41.6775 15.8765L33.9 30.2456H38.22C38.55 30.2456 38.82 30.5156 38.82 30.8456V32.8779C38.82 33.2079 38.55 33.4779 38.22 33.4779H32.4975V36.4027H38.22C38.55 36.4027 38.82 36.6727 38.82 37.0027V39.0351C38.82 39.365 38.55 39.635 38.22 39.635H32.4975V44.3972C32.4975 44.7272 32.2275 44.9972 31.8975 44.9972H28.155C27.825 44.9972 27.555 44.7272 27.555 44.3972V39.6425H21.855C21.525 39.6425 21.255 39.3725 21.255 39.0426V37.0102C21.255 36.6802 21.525 36.4102 21.855 36.4102H27.555V33.4854H21.855C21.525 33.4854 21.255 33.2154 21.255 32.8854V30.8531C21.255 30.5231 21.525 30.2531 21.855 30.2531H26.13L18.3375 15.884C18.18 15.599 18.285 15.2315 18.5775 15.0741C18.6675 15.0216 18.765 14.9991 18.8625 14.9991H23.04C23.1505 14.9997 23.2588 15.0308 23.3527 15.089C23.4467 15.1473 23.5228 15.2303 23.5725 15.329L29.925 27.9883H30.1725L36.525 15.329C36.6225 15.1266 36.8325 14.9991 37.0575 14.9991H41.145C41.475 14.9991 41.745 15.269 41.7525 15.5915C41.7525 15.689 41.7225 15.7865 41.6775 15.8765Z" fill="white"/>
</svg>
