<svg width="45" height="45" viewBox="0 0 45 45" fill="none" xmlns="http://www.w3.org/2000/svg">
<g filter="url(#filter0_b_684_1796)">
<circle cx="22.5" cy="22.5" r="22.5" fill="url(#paint0_linear_684_1796)"/>
</g>
<path d="M20.4308 21.9375C20.4308 22.3371 20.5896 22.7203 20.8721 23.0029C21.1547 23.2855 21.5379 23.4442 21.9375 23.4442C22.3371 23.4442 22.7203 23.2855 23.0029 23.0029C23.2854 22.7203 23.4442 22.3371 23.4442 21.9375C23.4442 21.5379 23.2854 21.1547 23.0029 20.8721C22.7203 20.5895 22.3371 20.4308 21.9375 20.4308C21.5379 20.4308 21.1547 20.5895 20.8721 20.8721C20.5896 21.1547 20.4308 21.5379 20.4308 21.9375V21.9375ZM26.7086 21.9375C26.7086 22.3371 26.8674 22.7203 27.1499 23.0029C27.4325 23.2855 27.8157 23.4442 28.2153 23.4442C28.6149 23.4442 28.9982 23.2855 29.2807 23.0029C29.5633 22.7203 29.722 22.3371 29.722 21.9375C29.722 21.5379 29.5633 21.1547 29.2807 20.8721C28.9982 20.5895 28.6149 20.4308 28.2153 20.4308C27.8157 20.4308 27.4325 20.5895 27.1499 20.8721C26.8674 21.1547 26.7086 21.5379 26.7086 21.9375ZM14.153 21.9375C14.153 22.3371 14.3117 22.7203 14.5943 23.0029C14.8769 23.2855 15.2601 23.4442 15.6597 23.4442C16.0593 23.4442 16.4425 23.2855 16.7251 23.0029C17.0076 22.7203 17.1664 22.3371 17.1664 21.9375C17.1664 21.5379 17.0076 21.1547 16.7251 20.8721C16.4425 20.5895 16.0593 20.4308 15.6597 20.4308C15.2601 20.4308 14.8769 20.5895 14.5943 20.8721C14.3117 21.1547 14.153 21.5379 14.153 21.9375V21.9375ZM34.9075 16.4883C34.1981 14.8027 33.1811 13.2897 31.8847 11.9902C30.5974 10.6982 29.0692 9.67118 27.3867 8.96735C25.6603 8.24226 23.8271 7.875 21.9375 7.875H21.8747C19.9725 7.88442 18.13 8.26109 16.3973 9.00188C14.7292 9.71292 13.2153 10.7417 11.9401 12.031C10.6563 13.3274 9.64866 14.8341 8.95182 16.5134C8.22988 18.2524 7.86576 20.1012 7.87518 22.0034C7.88583 24.1833 8.40155 26.3311 9.38186 28.2782V33.0494C9.38186 33.4323 9.53398 33.7996 9.80476 34.0704C10.0755 34.3412 10.4428 34.4933 10.8258 34.4933H15.6C17.5471 35.4736 19.6948 35.9893 21.8747 36H21.9406C23.8208 36 25.6446 35.6359 27.3615 34.9233C29.0356 34.2279 30.5581 33.2129 31.8439 31.9351C33.1403 30.6512 34.1604 29.1508 34.873 27.4777C35.6137 25.745 35.9904 23.9025 35.9998 22.0003C36.0092 20.0887 35.6389 18.2335 34.9075 16.4883V16.4883ZM30.1646 30.2369C27.9642 32.4153 25.045 33.6144 21.9375 33.6144H21.8841C19.9914 33.605 18.1112 33.1341 16.4507 32.249L16.187 32.1077H11.7674V27.6881L11.6262 27.4244C10.741 25.7639 10.2702 23.8836 10.2608 21.9909C10.2482 18.8613 11.4441 15.9233 13.6382 13.7103C15.8292 11.4973 18.7578 10.2732 21.8873 10.2606H21.9406C23.5101 10.2606 25.0325 10.5651 26.467 11.1678C27.8669 11.7547 29.1225 12.5991 30.2023 13.6789C31.2789 14.7556 32.1264 16.0143 32.7134 17.4143C33.3223 18.8645 33.6268 20.4026 33.6205 21.9909C33.6017 25.1173 32.3744 28.0459 30.1646 30.2369V30.2369Z" fill="white"/>
<defs>
<filter id="filter0_b_684_1796" x="-40" y="-40" width="125" height="125" filterUnits="userSpaceOnUse" color-interpolation-filters="sRGB">
<feFlood flood-opacity="0" result="BackgroundImageFix"/>
<feGaussianBlur in="BackgroundImage" stdDeviation="20"/>
<feComposite in2="SourceAlpha" operator="in" result="effect1_backgroundBlur_684_1796"/>
<feBlend mode="normal" in="SourceGraphic" in2="effect1_backgroundBlur_684_1796" result="shape"/>
</filter>
<linearGradient id="paint0_linear_684_1796" x1="34.7143" y1="10.9091" x2="-0.42702" y2="40.2193" gradientUnits="userSpaceOnUse">
<stop stop-color="#FDC7C0"/>
<stop offset="0.984387" stop-color="#FF6969"/>
</linearGradient>
</defs>
</svg>
