<svg width="44" height="44" viewBox="0 0 44 44" fill="none" xmlns="http://www.w3.org/2000/svg">
<path d="M12 34C12 34 10 34 10 32C10 30 12 24 22 24C32 24 34 30 34 32C34 34 32 34 32 34H12ZM22 22C23.5913 22 25.1174 21.3679 26.2426 20.2426C27.3679 19.1174 28 17.5913 28 16C28 14.4087 27.3679 12.8826 26.2426 11.7574C25.1174 10.6321 23.5913 10 22 10C20.4087 10 18.8826 10.6321 17.7574 11.7574C16.6321 12.8826 16 14.4087 16 16C16 17.5913 16.6321 19.1174 17.7574 20.2426C18.8826 21.3679 20.4087 22 22 22Z" fill="#A9A9A9"/>
</svg>
