<svg width="27" height="29" viewBox="0 0 27 29" fill="none" xmlns="http://www.w3.org/2000/svg">
<path d="M19.6655 27.5H2.5V11.6024C3.76395 11.2109 5.10735 11 6.5 11C13.9558 11 20 17.0442 20 24.5C20 25.5311 19.8844 26.5352 19.6655 27.5Z" fill="url(#paint0_linear_119_21431)"/>
<path d="M14.3242 15.2705L17.509 18.4552C17.8995 18.8458 18.5327 18.8458 18.9232 18.4552L25.9999 11.3786M18.2162 6.18938L14.4412 2.4144C13.6602 1.63335 12.3939 1.63335 11.6128 2.4144L2.58579 11.4414C2.21071 11.8165 2 12.3252 2 12.8556V25.5948C2 26.6994 2.89543 27.5948 4 27.5948H22.0541C23.1586 27.5948 24.0541 26.6994 24.0541 25.5948V21.7569" stroke="#2D2D2D" stroke-width="2.5"/>
<defs>
<linearGradient id="paint0_linear_119_21431" x1="16" y1="15" x2="3" y2="26.5" gradientUnits="userSpaceOnUse">
<stop stop-color="#FDC7C0"/>
<stop offset="0.984387" stop-color="#FF6969"/>
</linearGradient>
</defs>
</svg>
