<svg width="14" height="16" viewBox="0 0 14 16" fill="none" xmlns="http://www.w3.org/2000/svg">
<path d="M1.36 16C1.36 16 0 16 0 14.6667C0 13.3333 1.36 9.33333 6.8 9.33333C12.24 9.33333 13.6 13.3333 13.6 14.6667C13.6 16 12.24 16 12.24 16H1.36ZM6.8 8C7.88208 8 8.91985 7.57857 9.685 6.82843C10.4501 6.07828 10.88 5.06087 10.88 4C10.88 2.93913 10.4501 1.92172 9.685 1.17157C8.91985 0.421427 7.88208 0 6.8 0C5.71792 0 4.68015 0.421427 3.915 1.17157C3.14986 1.92172 2.72 2.93913 2.72 4C2.72 5.06087 3.14986 6.07828 3.915 6.82843C4.68015 7.57857 5.71792 8 6.8 8Z" fill="white"/>
</svg>
