<svg width="45" height="45" viewBox="0 0 45 45" fill="none" xmlns="http://www.w3.org/2000/svg">
<g filter="url(#filter0_b_684_1805)">
<circle cx="22.5" cy="22.5" r="22.5" fill="url(#paint0_linear_684_1805)"/>
</g>
<path fill-rule="evenodd" clip-rule="evenodd" d="M16.5241 17.0846L10.5903 11.8635C10.3504 11.6522 10.0513 11.5197 9.7336 11.484C9.41589 11.4484 9.09489 11.5112 8.81408 11.664C8.53327 11.8168 8.30621 12.0523 8.16367 12.3385C8.02112 12.6246 7.96998 12.9477 8.01715 13.2639L10.3922 29.3265H35.6448L37.9841 13.1906C38.0294 12.8761 37.9777 12.5553 37.8358 12.2711C37.6938 11.9868 37.4684 11.7527 37.1898 11.6001C36.9111 11.4475 36.5925 11.3836 36.2766 11.417C35.9606 11.4504 35.6624 11.5795 35.4218 11.7871L29.2962 17.0831L24.2513 10.6019C24.1073 10.4167 23.9233 10.2665 23.7131 10.1623C23.5029 10.0581 23.272 10.0026 23.0374 10.0001C22.8028 9.99755 22.5707 10.0479 22.3583 10.1476C22.1459 10.2472 21.9588 10.3934 21.8107 10.5754L16.5241 17.0846ZM35.4655 30.886H10.5139V32.4455C10.5139 32.8591 10.6782 33.2557 10.9706 33.5482C11.2631 33.8406 11.6598 34.0049 12.0734 34.0049H33.906C34.3196 34.0049 34.7163 33.8406 35.0087 33.5482C35.3012 33.2557 35.4655 32.8591 35.4655 32.4455V30.886ZM22.3099 19.7192C22.6872 19.4887 23.0016 19.2477 23.2531 18.9857H24.1753V26.4682H22.9492V20.4633C22.4986 20.872 21.9327 21.1759 21.241 21.375V20.1594C21.5764 20.0755 21.9327 19.9288 22.3099 19.7192Z" fill="white"/>
<defs>
<filter id="filter0_b_684_1805" x="-40" y="-40" width="125" height="125" filterUnits="userSpaceOnUse" color-interpolation-filters="sRGB">
<feFlood flood-opacity="0" result="BackgroundImageFix"/>
<feGaussianBlur in="BackgroundImage" stdDeviation="20"/>
<feComposite in2="SourceAlpha" operator="in" result="effect1_backgroundBlur_684_1805"/>
<feBlend mode="normal" in="SourceGraphic" in2="effect1_backgroundBlur_684_1805" result="shape"/>
</filter>
<linearGradient id="paint0_linear_684_1805" x1="34.7143" y1="10.9091" x2="-0.42702" y2="40.2193" gradientUnits="userSpaceOnUse">
<stop stop-color="#FDC7C0"/>
<stop offset="0.984387" stop-color="#FF6969"/>
</linearGradient>
</defs>
</svg>
