<svg width="38" height="30" viewBox="0 0 38 30" fill="none" xmlns="http://www.w3.org/2000/svg">
<path fill-rule="evenodd" clip-rule="evenodd" d="M10.6528 8.85396L3.2371 2.32888C2.93727 2.0648 2.56351 1.89925 2.16645 1.85466C1.7694 1.81007 1.36823 1.88859 1.01729 2.07959C0.666348 2.27059 0.382588 2.56483 0.204443 2.92247C0.0262986 3.28011 -0.037622 3.68386 0.0213391 4.07904L2.98959 24.1532H34.5489L37.4723 3.98744C37.529 3.59444 37.4644 3.1935 37.287 2.83827C37.1096 2.48304 36.8279 2.19046 36.4797 1.9997C36.1314 1.80894 35.7332 1.7291 35.3384 1.77086C34.9435 1.81263 34.5708 1.974 34.2702 2.23338L26.6147 8.85201L20.3099 0.752185C20.1299 0.520797 19.9 0.333005 19.6373 0.202791C19.3746 0.0725778 19.086 0.00329938 18.7928 0.00011499C18.4997 -0.0030694 18.2096 0.0599223 17.9441 0.184399C17.6787 0.308876 17.4448 0.491631 17.2598 0.719053L10.6528 8.85396ZM17.8836 12.1467C18.3551 11.8586 18.748 11.5573 19.0623 11.2299H20.2148V20.5811H18.6825V13.0766C18.1193 13.5874 17.4121 13.9672 16.5477 14.216V12.6968C16.9668 12.592 17.4121 12.4086 17.8836 12.1467Z" fill="#FFD3D3"/>
<path d="M34.3248 26.1021H3.1416V28.0511C3.1416 28.568 3.34694 29.0637 3.71244 29.4292C4.07793 29.7947 4.57366 30 5.09055 30H32.3758C32.8927 30 33.3884 29.7947 33.7539 29.4292C34.1194 29.0637 34.3248 28.568 34.3248 28.0511V26.1021Z" fill="#FFD3D3"/>
</svg>
