<svg width="45" height="45" viewBox="0 0 45 45" fill="none" xmlns="http://www.w3.org/2000/svg">
<g filter="url(#filter0_b_684_1802)">
<circle cx="22.5" cy="22.5" r="22.5" fill="url(#paint0_linear_684_1802)"/>
</g>
<path d="M24.125 21.125C23.375 20.9375 22.625 20.5625 22.0625 20C21.5 19.8125 21.3125 19.25 21.3125 18.875C21.3125 18.5 21.5 17.9375 21.875 17.75C22.4375 17.375 23 17 23.5625 17.1875C24.6875 17.1875 25.625 17.75 26.1875 18.5L27.875 16.25C27.3125 15.6875 26.75 15.3125 26.1875 14.9375C25.625 14.5625 24.875 14.375 24.125 14.375V11.75H21.875V14.375C20.9375 14.5625 20 15.125 19.25 15.875C18.5 16.8125 17.9375 17.9375 18.125 19.0625C18.125 20.1875 18.5 21.3125 19.25 22.0625C20.1875 23 21.5 23.5625 22.625 24.125C23.1875 24.3125 23.9375 24.6875 24.5 25.0625C24.875 25.4375 25.0625 26 25.0625 26.5625C25.0625 27.125 24.875 27.6875 24.5 28.25C23.9375 28.8125 23.1875 29 22.625 29C21.875 29 20.9375 28.8125 20.375 28.25C19.8125 27.875 19.25 27.3125 18.875 26.75L17 28.8125C17.5625 29.5625 18.125 30.125 18.875 30.6875C19.8125 31.25 20.9375 31.8125 22.0625 31.8125V34.25H24.125V31.4375C25.25 31.25 26.1875 30.6875 26.9375 29.9375C27.875 29 28.4375 27.5 28.4375 26.1875C28.4375 25.0625 28.0625 23.75 27.125 23C26.1875 22.0625 25.25 21.5 24.125 21.125ZM23 8C14.75 8 8 14.75 8 23C8 31.25 14.75 38 23 38C31.25 38 38 31.25 38 23C38 14.75 31.25 8 23 8ZM23 35.9375C15.875 35.9375 10.0625 30.125 10.0625 23C10.0625 15.875 15.875 10.0625 23 10.0625C30.125 10.0625 35.9375 15.875 35.9375 23C35.9375 30.125 30.125 35.9375 23 35.9375Z" fill="white"/>
<defs>
<filter id="filter0_b_684_1802" x="-40" y="-40" width="125" height="125" filterUnits="userSpaceOnUse" color-interpolation-filters="sRGB">
<feFlood flood-opacity="0" result="BackgroundImageFix"/>
<feGaussianBlur in="BackgroundImage" stdDeviation="20"/>
<feComposite in2="SourceAlpha" operator="in" result="effect1_backgroundBlur_684_1802"/>
<feBlend mode="normal" in="SourceGraphic" in2="effect1_backgroundBlur_684_1802" result="shape"/>
</filter>
<linearGradient id="paint0_linear_684_1802" x1="34.7143" y1="10.9091" x2="-0.42702" y2="40.2193" gradientUnits="userSpaceOnUse">
<stop stop-color="#FDC7C0"/>
<stop offset="0.984387" stop-color="#FF6969"/>
</linearGradient>
</defs>
</svg>
