<svg width="44" height="44" viewBox="0 0 44 44" fill="none" xmlns="http://www.w3.org/2000/svg">
<path fill-rule="evenodd" clip-rule="evenodd" d="M27.1905 25.4782L33.6464 31.934C33.8733 32.1611 34.0007 32.469 34.0006 32.79C34.0005 33.111 33.8729 33.4189 33.6458 33.6458C33.4187 33.8727 33.1108 34.0001 32.7898 34C32.4688 33.9999 32.1609 33.8723 31.934 33.6452L25.4782 27.1893C23.5483 28.6841 21.1214 29.3875 18.6913 29.1565C16.2611 28.9255 14.0103 27.7773 12.3966 25.9457C10.783 24.114 9.92768 21.7364 10.0048 19.2965C10.0819 16.8567 11.0856 14.5378 12.8117 12.8117C14.5378 11.0856 16.8567 10.0819 19.2965 10.0048C21.7364 9.92768 24.114 10.783 25.9457 12.3966C27.7773 14.0103 28.9255 16.2611 29.1565 18.6913C29.3875 21.1214 28.6841 23.5483 27.1893 25.4782H27.1905ZM19.6007 26.7993C21.5102 26.7993 23.3415 26.0408 24.6917 24.6905C26.042 23.3403 26.8005 21.509 26.8005 19.5995C26.8005 17.69 26.042 15.8587 24.6917 14.5084C23.3415 13.1582 21.5102 12.3996 19.6007 12.3996C17.6912 12.3996 15.8599 13.1582 14.5096 14.5084C13.1594 15.8587 12.4008 17.69 12.4008 19.5995C12.4008 21.509 13.1594 23.3403 14.5096 24.6905C15.8599 26.0408 17.6912 26.7993 19.6007 26.7993Z" fill="#A9A9A9"/>
</svg>
