<svg width="35" height="35" viewBox="0 0 35 35" fill="none" xmlns="http://www.w3.org/2000/svg">
<path d="M33.6875 7.00437V1.4C33.6875 0.625625 33.0619 0 32.2875 0H2.71252C1.93815 0 1.31253 0.625625 1.31253 1.4V7.00437C0.581902 7.04813 2.71072e-05 7.65625 2.71072e-05 8.4V14.1619C-0.00277466 15.2208 0.211643 16.2691 0.630027 17.2419C0.818152 17.6881 1.05003 18.1081 1.31253 18.5063V33.6C1.31253 34.37 1.93815 35 2.71252 35H14.7V27.3H20.3V35H32.2875C33.0619 35 33.6875 34.3744 33.6875 33.6V18.5063C33.9541 18.1071 34.1826 17.6838 34.37 17.2419C34.7856 16.2663 35 15.2294 35 14.1619V8.4C35 7.65625 34.4181 7.04813 33.6875 7.00437ZM30.5375 31.8544H23.1V25.9C23.1 25.1256 22.4744 24.5 21.7 24.5H13.3C12.5256 24.5 11.9 25.1256 11.9 25.9V31.8544H4.46252V21.2581C4.5894 21.3194 4.72065 21.3806 4.85627 21.4331C5.8319 21.8444 6.86877 22.05 7.93627 22.05C9.00377 22.05 10.0363 21.8444 11.0163 21.4331C11.62 21.1794 12.1888 20.8556 12.7094 20.4662C12.7181 20.4619 12.7269 20.4619 12.7356 20.4662C13.2579 20.8573 13.8266 21.1821 14.4288 21.4331C15.4044 21.8444 16.4413 22.05 17.5088 22.05C18.5763 22.05 19.6088 21.8444 20.5888 21.4331C21.1925 21.1794 21.7613 20.8556 22.2819 20.4662C22.2906 20.4619 22.2994 20.4619 22.3081 20.4662C22.8304 20.8573 23.3991 21.1821 24.0013 21.4331C24.9769 21.8444 26.0138 22.05 27.0813 22.05C28.1488 22.05 29.1813 21.8444 30.1613 21.4331C30.2925 21.3763 30.4238 21.3194 30.555 21.2581V31.8544H30.5375ZM30.5375 7H4.46252V3.15H30.5375V7Z" fill="#FFD3D3"/>
</svg>
