<svg width="30" height="50" viewBox="0 0 30 50" fill="none" xmlns="http://www.w3.org/2000/svg">
<path fill-rule="evenodd" clip-rule="evenodd" d="M0 5.26316C0 4.17312 0.3148 3.16048 0.853922 2.32048C1.75246 0.920468 3.27411 0 5 0H25C27.7614 0 30 2.3564 30 5.26316V44.7368C30 47.6436 27.7614 50 25 50H5C2.23858 50 0 47.6436 0 44.7368V5.26316ZM29.5 5.26316C29.5 2.64707 27.4853 0.526316 25 0.526316H5C4.37868 0.526316 3.78677 0.658863 3.2484 0.898561C1.63328 1.61765 0.5 3.30109 0.5 5.26316L0.5 7.89474L29.5 7.89474V5.26316ZM29.5 8.42105L0.5 8.42106V41.5789H29.5V8.42105ZM0.5 44.7368V42.1053H29.5V44.7368C29.5 47.3529 27.4853 49.4737 25 49.4737H5C2.51472 49.4737 0.5 47.3529 0.5 44.7368Z" fill="white"/>
<rect x="9" y="45" width="12" height="1" fill="white"/>
</svg>
