<svg width="22" height="22" viewBox="0 0 22 22" fill="none" xmlns="http://www.w3.org/2000/svg">
<circle cx="11" cy="11" r="11" fill="#FF8888"/>
<path d="M9.93507 13.0175C10.9395 13.7971 12.2033 14.1647 13.4692 14.0454C14.735 13.926 15.9079 13.3287 16.7489 12.3751C17.5899 11.4215 18.0359 10.1832 17.996 8.91235C17.9562 7.64148 17.4336 6.43355 16.5345 5.53447C15.6354 4.63539 14.4275 4.11273 13.1566 4.0729C11.8857 4.03307 10.6474 4.47905 9.69382 5.32007C8.74019 6.16108 8.14292 7.33391 8.02358 8.59979C7.90424 9.86567 8.27181 11.1295 9.05145 12.1339L8.13691 13.0484L5.92787 10.8394L5.04425 11.723L7.25329 13.932L5.48606 15.6993L6.36968 16.5829L8.13691 14.8156L10.346 17.0247L11.2296 16.1411L9.02053 13.932L9.93507 13.0175ZM10.346 6.42129C10.8702 5.897 11.5382 5.53996 12.2654 5.39531C12.9926 5.25066 13.7464 5.3249 14.4314 5.60864C15.1164 5.89238 15.7019 6.37288 16.1139 6.98938C16.5258 7.60588 16.7457 8.33069 16.7457 9.07214C16.7457 9.8136 16.5258 10.5384 16.1139 11.1549C15.7019 11.7714 15.1164 12.2519 14.4314 12.5356C13.7464 12.8194 12.9926 12.8936 12.2654 12.749C11.5382 12.6043 10.8702 12.2473 10.346 11.723C9.64397 11.0194 9.24974 10.066 9.24974 9.07214C9.24974 8.07823 9.64397 7.12491 10.346 6.42129Z" fill="white"/>
</svg>
