<svg width="20" height="20" viewBox="0 0 20 20" fill="none" xmlns="http://www.w3.org/2000/svg">
<path d="M8.73438 10C11.4958 10 13.7344 7.76142 13.7344 5C13.7344 2.23858 11.4958 0 8.73438 0C5.97295 0 3.73438 2.23858 3.73438 5C3.73438 7.76142 5.97295 10 8.73438 10Z" fill="#898989"/>
<path d="M13.7344 20H2.00044C1.71682 20.0001 1.43643 19.9398 1.17788 19.8232C0.919333 19.7066 0.688537 19.5364 0.500811 19.3238C0.313085 19.1112 0.172723 18.8611 0.08904 18.5901C0.00535704 18.3191 -0.0197329 18.0334 0.0154357 17.752L0.405436 14.628C0.496132 13.9022 0.848851 13.2346 1.39727 12.7506C1.94568 12.2667 2.65201 11.9997 3.38344 12H3.73444L13.7344 20ZM15.7344 11V17V11ZM12.7344 14H18.7344H12.7344Z" fill="#898989"/>
<path fill-rule="evenodd" clip-rule="evenodd" d="M16 9C16 8.44772 15.5523 8 15 8C14.4477 8 14 8.44772 14 9L14 12H11C10.4477 12 10 12.4477 10 13C10 13.5523 10.4477 14 11 14H14L14 17C14 17.5523 14.4477 18 15 18C15.5523 18 16 17.5523 16 17V14H19C19.5523 14 20 13.5523 20 13C20 12.4477 19.5523 12 19 12H16V9Z" fill="#898989"/>
</svg>
