<svg width="22" height="12" viewBox="0 0 22 12" fill="none" xmlns="http://www.w3.org/2000/svg">
<path d="M3.78406 0.575999C3.40006 0.976 2.92006 1.344 2.34406 1.696C1.76806 2.016 1.22406 2.24 0.712063 2.368V4.224C1.76806 3.92 2.63206 3.456 3.32006 2.832V12H5.19206V0.575999H3.78406ZM6.30656 0.575999L10.3706 12H12.6266L16.6906 0.575999H14.6586L11.5226 9.888H11.4746L8.33856 0.575999H6.30656ZM20.0774 0.575999C19.6934 0.976 19.2134 1.344 18.6374 1.696C18.0614 2.016 17.5174 2.24 17.0054 2.368V4.224C18.0614 3.92 18.9254 3.456 19.6134 2.832V12H21.4854V0.575999H20.0774Z" fill="#898989"/>
</svg>
